<svg width="14" height="14" viewBox="0 0 14 14" fill="none" xmlns="http://www.w3.org/2000/svg">
<g clip-path="url(#clip0_1_1017)">
<path d="M7 14C10.866 14 14 10.866 14 7C14 3.13401 10.866 0 7 0C3.13401 0 0 3.13401 0 7C0 10.866 3.13401 14 7 14Z" fill="white"/>
<path d="M10.6099 6.24989H7.74989V3.38989C7.74989 2.97989 7.40989 2.63989 6.99989 2.63989C6.58989 2.63989 6.24989 2.97989 6.24989 3.38989V6.24989H3.38989C2.97989 6.24989 2.63989 6.58989 2.63989 6.99989C2.63989 7.40989 2.97989 7.74989 3.38989 7.74989H6.24989V10.6099C6.24989 11.0199 6.58989 11.3599 6.99989 11.3599C7.40989 11.3599 7.74989 11.0199 7.74989 10.6099V7.74989H10.6099C11.0199 7.74989 11.3599 7.40989 11.3599 6.99989C11.3599 6.58989 11.0199 6.24989 10.6099 6.24989Z" fill="#2E6EFF"/>
</g>
<defs>
<clipPath id="clip0_1_1017">
<rect width="14" height="14" fill="white"/>
</clipPath>
</defs>
</svg>
