<svg width="12" height="12" viewBox="0 0 12 12" fill="none" xmlns="http://www.w3.org/2000/svg">
  <rect width="12" height="12" rx="2" fill="#D3D3D3"/>

  <path
    d="M9.1559 5.40014H6.5999V2.84414C6.5999 2.68501 6.53668 2.5324 6.42416 2.41988C6.31164 2.30735 6.15903 2.24414 5.9999 2.24414C5.84077 2.24414 5.68815 2.30735 5.57563 2.41988C5.46311 2.5324 5.3999 2.68501 5.3999 2.84414V5.40014H2.8439C2.68477 5.40014 2.53215 5.46335 2.41963 5.57588C2.30711 5.6884 2.2439 5.84101 2.2439 6.00014C2.2439 6.15927 2.30711 6.31188 2.41963 6.4244C2.53215 6.53693 2.68477 6.60014 2.8439 6.60014H5.3999V9.15614C5.3999 9.31527 5.46311 9.46788 5.57563 9.5804C5.68815 9.69293 5.84077 9.75614 5.9999 9.75614C6.15903 9.75614 6.31164 9.69293 6.42416 9.5804C6.53668 9.46788 6.5999 9.31527 6.5999 9.15614V6.60014H9.1559C9.31503 6.60014 9.46764 6.53693 9.58016 6.4244C9.69268 6.31188 9.7559 6.15927 9.7559 6.00014C9.7559 5.84101 9.69268 5.6884 9.58016 5.57588C9.46764 5.46335 9.31503 5.40014 9.1559 5.40014Z"
    fill="white"/>

</svg>
