<svg width="20" height="20" viewBox="0 0 20 20" fill="none" xmlns="http://www.w3.org/2000/svg">
<g clip-path="url(#clip0_1_964)">
<path d="M6.64005 1.68994C5.69005 1.68994 4.93005 2.45994 4.93005 3.39994C4.93005 4.33994 5.70005 5.10994 6.64005 5.10994C7.58005 5.10994 8.35005 4.33994 8.35005 3.39994C8.35005 2.45994 7.58005 1.68994 6.64005 1.68994Z" fill="#1E1E1E"/>
<path d="M6.64005 8.29004C5.69005 8.29004 4.93005 9.06004 4.93005 10C4.93005 10.94 5.70005 11.71 6.64005 11.71C7.58005 11.71 8.35005 10.94 8.35005 10C8.35005 9.06004 7.58005 8.29004 6.64005 8.29004Z" fill="#1E1E1E"/>
<path d="M6.64005 14.8799C5.69005 14.8799 4.93005 15.6499 4.93005 16.5899C4.93005 17.5299 5.70005 18.2999 6.64005 18.2999C7.58005 18.2999 8.35005 17.5299 8.35005 16.5899C8.35005 15.6499 7.58005 14.8799 6.64005 14.8799Z" fill="#1E1E1E"/>
<path d="M13.36 5.11995C14.31 5.11995 15.07 4.34995 15.07 3.40995C15.07 2.46995 14.3 1.69995 13.36 1.69995C12.42 1.69995 11.65 2.46995 11.65 3.40995C11.65 4.34995 12.42 5.11995 13.36 5.11995Z" fill="#1E1E1E"/>
<path d="M13.36 8.29004C12.41 8.29004 11.65 9.06004 11.65 10C11.65 10.94 12.42 11.71 13.36 11.71C14.3 11.71 15.07 10.94 15.07 10C15.07 9.06004 14.3 8.29004 13.36 8.29004Z" fill="#1E1E1E"/>
<path d="M13.36 14.8799C12.41 14.8799 11.65 15.6499 11.65 16.5899C11.65 17.5299 12.42 18.2999 13.36 18.2999C14.3 18.2999 15.07 17.5299 15.07 16.5899C15.07 15.6499 14.3 14.8799 13.36 14.8799Z" fill="#1E1E1E"/>
</g>
<defs>
<clipPath id="clip0_1_964">
<rect width="20" height="20" fill="white"/>
</clipPath>
</defs>
</svg>
