<svg width="18" height="18" viewBox="0 0 18 18" fill="none" xmlns="http://www.w3.org/2000/svg">

<path d="M16.21 1.43004C15.04 0.430038 13.23 0.550038 12.08 1.69004L2.01003 11.77C1.61003 12.17 1.35003 12.68 1.27003 13.23L1.06003 14.7C0.960026 15.32 1.16003 15.94 1.61003 16.39C1.99003 16.77 2.49003 16.98 3.01003 16.98C3.11003 16.98 3.21003 16.98 3.31003 16.96L4.78003 16.74C5.32003 16.66 5.84003 16.4 6.23003 16L16.4 5.82004C16.97 5.25004 17.28 4.49004 17.27 3.73004C17.29 2.86004 16.9 2.02004 16.21 1.43004ZM5.17003 14.94C5.00003 15.11 4.78003 15.22 4.55003 15.25L3.08003 15.47C2.92003 15.49 2.77003 15.44 2.66003 15.33C2.60003 15.27 2.50003 15.13 2.53003 14.92L2.74003 13.45C2.78003 13.21 2.89003 13 3.06003 12.83L10.17 5.72004L12.28 7.83004L5.16003 14.95L5.17003 14.94ZM15.34 4.76004L13.34 6.76004L11.23 4.65004L13.13 2.75004C13.46 2.42004 13.9 2.25004 14.32 2.25004C14.65 2.25004 14.97 2.35004 15.22 2.57004C15.57 2.87004 15.76 3.28004 15.76 3.72004C15.76 4.11004 15.61 4.48004 15.33 4.76004H15.34Z" fill="#929298"/>

</svg>
